<?xml version="1.0" encoding="UTF-8"?><svg id="Calque_1" xmlns="http://www.w3.org/2000/svg" viewBox="0 0 960 533"><defs><style>.cls-1,.cls-2{fill:#5480ac;}.cls-3{fill:#204c66;}.cls-2{font-family:Roboto-Regular, Roboto;font-size:20px;}</style></defs><path class="cls-3" d="m399.36,302.17c192.62-186.66,385.63-42.4,418.33-11,27.85,26.74,127.7,110.17,142.32,125.09v42.4c-19.02-9.69-180.11-42.4-160.7-116.43,13.49-51.46-126.79,92.84-244.61,3.57-104.11-78.88-155.33-43.64-155.33-43.64Z"/><text class="cls-2" transform="translate(82.28 292.35) rotate(-17.03)"><tspan x="0" y="0">B</tspan></text><text class="cls-2" transform="translate(101.44 286.66) rotate(-14.91)"><tspan x="0" y="0">a</tspan></text><text class="cls-2" transform="translate(119.29 282.03) rotate(-13.43)"><tspan x="0" y="0">s</tspan></text><text class="cls-2" transform="translate(136.73 277.94) rotate(-12.42)"><tspan x="0" y="0">e</tspan></text><text class="cls-2" transform="translate(154.53 274.07) rotate(-11.79)"><tspan x="0" y="0">d</tspan></text><text class="cls-2" transform="translate(172.93 270.24) rotate(-9.65)"><tspan x="0" y="0"> </tspan></text><text class="cls-2" transform="translate(185.08 268.56) rotate(-3.78)"><tspan x="0" y="0">i</tspan></text><text class="cls-2" transform="translate(197.17 268.03) rotate(3.16)"><tspan x="0" y="0">n</tspan></text><text class="cls-2" transform="translate(215.43 269.62) rotate(9.53)"><tspan x="0" y="0"> </tspan></text><text class="cls-2" transform="translate(227.48 271.84) rotate(15.49)"><tspan x="0" y="0">A</tspan></text><text class="cls-2" transform="translate(246.97 277.72) rotate(21.46)"><tspan x="0" y="0">n</tspan></text><text class="cls-2" transform="translate(263.98 284.75) rotate(26.14)"><tspan x="0" y="0">g</tspan></text><text class="cls-2" transform="translate(280.62 293.28) rotate(29.43)"><tspan x="0" y="0">l</tspan></text><text class="cls-2" transform="translate(291.31 299.44) rotate(32.15)"><tspan x="0" y="0">e</tspan></text><text class="cls-2" transform="translate(306.54 309.27) rotate(34.6)"><tspan x="0" y="0">t</tspan></text><text class="cls-2" transform="translate(318.07 317.39) rotate(36.26)"><tspan x="0" y="0">,</tspan></text><text class="cls-2" transform="translate(327.3 324.26) rotate(37.62)"><tspan x="0" y="0"> </tspan></text><text class="cls-2" transform="translate(337.17 331.96) rotate(39.11)"><tspan x="0" y="0">a</tspan></text><text class="cls-2" transform="translate(351.41 343.68) rotate(40.38)"><tspan x="0" y="0">t</tspan></text><text class="cls-2" transform="translate(362.16 352.91) rotate(41.22)"><tspan x="0" y="0"> </tspan></text><text class="cls-2" transform="translate(371.57 361.21) rotate(41.84)"><tspan x="0" y="0">t</tspan></text><text class="cls-2" transform="translate(382.11 370.69) rotate(42.32)"><tspan x="0" y="0">h</tspan></text><text class="cls-2" transform="translate(395.93 383.2) rotate(40.42)"><tspan x="0" y="0">e</tspan></text><text class="cls-2" transform="translate(409.85 394.8) rotate(38.25)"><tspan x="0" y="0"> </tspan></text><text class="cls-2" transform="translate(419.68 402.45) rotate(35.84)"><tspan x="0" y="0">B</tspan></text><text class="cls-2" transform="translate(435.97 413.96) rotate(32.84)"><tspan x="0" y="0">a</tspan></text><text class="cls-2" transform="translate(451.75 423.89) rotate(29.77)"><tspan x="0" y="0">s</tspan></text><text class="cls-2" transform="translate(467.9 432.88) rotate(26.37)"><tspan x="0" y="0">q</tspan></text><text class="cls-2" transform="translate(485.56 441.34) rotate(22.63)"><tspan x="0" y="0">u</tspan></text><text class="cls-2" transform="translate(503.46 448.49) rotate(18.68)"><tspan x="0" y="0">e</tspan></text><text class="cls-2" transform="translate(521.36 454.19) rotate(15.15)"><tspan x="0" y="0"> </tspan></text><text class="cls-2" transform="translate(534.15 457.51) rotate(11.11)"><tspan x="0" y="0">C</tspan></text><text class="cls-2" transform="translate(555.28 461.24) rotate(5.99)"><tspan x="0" y="0">o</tspan></text><text class="cls-2" transform="translate(575.04 462.94) rotate(.88)"><tspan x="0" y="0">u</tspan></text><text class="cls-2" transform="translate(594.5 462.85) rotate(-4.34)"><tspan x="0" y="0">n</tspan></text><text class="cls-2" transform="translate(614.16 460.84) rotate(-11.61)"><tspan x="0" y="0">t</tspan></text><text class="cls-2" transform="translate(628.7 457.4) rotate(-16.59)"><tspan x="0" y="0">r</tspan></text><text class="cls-2" transform="translate(642.51 453.12) rotate(-18.51)"><tspan x="0" y="0">y</tspan></text><text class="cls-2" transform="translate(658.71 447.67) rotate(-18.39)"><tspan x="0" y="0"> </tspan></text><text class="cls-2" transform="translate(670.64 443.76) rotate(-17.32)"><tspan x="0" y="0"> </tspan></text><text class="cls-2" transform="translate(682.58 440.14) rotate(-15.44)"><tspan x="0" y="0">(</tspan></text><text class="cls-2" transform="translate(696.41 436.45) rotate(-12.4)"><tspan x="0" y="0">F</tspan></text><text class="cls-2" transform="translate(714.49 432.71) rotate(-8.15)"><tspan x="0" y="0">R</tspan></text><text class="cls-2" transform="translate(734.11 430.29) rotate(-4.21)"><tspan x="0" y="0"> </tspan></text><text class="cls-2" transform="translate(746.49 429.58) rotate(-.99)"><tspan x="0" y="0">-</tspan></text><text class="cls-2" transform="translate(759.48 429.57) rotate(2.24)"><tspan x="0" y="0"> </tspan></text><text class="cls-2" transform="translate(771.85 430.2) rotate(6.12)"><tspan x="0" y="0">6</tspan></text><text class="cls-2" transform="translate(790.33 432.48) rotate(10.55)"><tspan x="0" y="0">4</tspan></text><text class="cls-2" transform="translate(808.71 436.16) rotate(10.77)"><tspan x="0" y="0">6</tspan></text><text class="cls-2" transform="translate(827.2 439.56) rotate(9.3)"><tspan x="0" y="0">0</tspan></text><text class="cls-2" transform="translate(845.84 442.54) rotate(8.65)"><tspan x="0" y="0">0</tspan></text><text class="cls-2" transform="translate(864.5 445.37) rotate(8.76)"><tspan x="0" y="0">)</tspan></text><text class="cls-2" transform="translate(878.9 447.63) rotate(9.33)"><tspan x="0" y="0"> </tspan></text><path class="cls-1" d="m-89.2,424.2c66.83-38.72,145.3-162.96,279.34-136.98,29.95,5.81,68.22,23.72,102.54,44.57,44.75,27.2,107.41,76.1,123.22,88.82,1.11,1.22-129.5,140.41-293.7-59.43-45.6-55.49-191.15,55.29-209.79,63.94-.61.28-1.61-.93-1.61-.93Z"/></svg>