<?xml version="1.0" encoding="UTF-8"?><svg id="Calque_1" xmlns="http://www.w3.org/2000/svg" viewBox="0 0 960 533"><defs><style>.cls-1{fill:#fff;}.cls-2{fill:#94a3b8;}.cls-2,.cls-3{font-family:Roboto-Bold, Roboto;font-size:24px;font-weight:700;}.cls-4{stroke:#2a6281;}.cls-4,.cls-5{fill:none;}.cls-4,.cls-6,.cls-7{stroke-miterlimit:10;}.cls-8,.cls-9{fill:#5480ac;}.cls-10{font-family:MyriadPro-Regular, 'Myriad Pro';font-size:16.5px;}.cls-11{font-size:20.62px;}.cls-11,.cls-9{font-family:Roboto-Regular, Roboto;}.cls-12{fill:#2a6281;}.cls-6{fill:#a98e5d;stroke:#204c66;}.cls-7{fill:#1d1d1b;stroke:#1d1d1b;}.cls-9{font-size:20px;}</style></defs><path class="cls-8" d="m-2,428.87c87.47-52.09,244.72-50.97,334.69-15.52,57.53,22.67,58.27,31.76,138.98,45.85s169.41,2.16,170.9,0,11.19-24.46,13.31-27.95c-157.31-121.5-436.88-139.48-603.1-75.91-12.94,4.95-42.55,18.38-54.79,28.26"/><path class="cls-6" d="m751.61,187.02c-45.9-5.53-87.59,27.2-93.12,73.1-5.53,45.9,27.2,87.59,73.1,93.12,45.9,5.53,87.59-27.2,93.12-73.1l-83.11-10.01,10.01-83.11Z"/><path class="cls-5" d="m743.09,54.25c-119.22,0-215.88,96.65-215.88,215.88s96.65,215.88,215.88,215.88,215.88-96.65,215.88-215.88h-215.88V54.25Z"/><path class="cls-7" d="m739.43,269.11c4.12,16.47,19.23,29.78,38.77,32.25,19.54,2.46,37.71-6.65,46.12-21.54"/><ellipse class="cls-1" cx="778.34" cy="293.44" rx="4.48" ry="12.66" transform="translate(370.01 1018.13) rotate(-81.26)"/><text class="cls-11" transform="translate(712.15 459.29) rotate(8.79)"><tspan x="0" y="0">T</tspan></text><text class="cls-11" transform="translate(730.54 461.8) rotate(3.26)"><tspan x="0" y="0">a</tspan></text><text class="cls-11" transform="translate(748.95 462.43) rotate(-1.37)"><tspan x="0" y="0">l</tspan></text><text class="cls-11" transform="translate(761.24 461.97) rotate(-6.07)"><tspan x="0" y="0">a</tspan></text><text class="cls-11" transform="translate(779.6 459.58) rotate(-10.84)"><tspan x="0" y="0"> </tspan></text><text class="cls-11" transform="translate(791.57 457.05) rotate(-14.62)"><tspan x="0" y="0"> </tspan></text><text class="cls-11" transform="translate(803.58 453.77) rotate(-19.78)"><tspan x="0" y="0">A</tspan></text><text class="cls-11" transform="translate(823.17 446.23) rotate(-25.99)"><tspan x="0" y="0">g</tspan></text><text class="cls-11" transform="translate(840.1 437.55) rotate(-31.82)"><tspan x="0" y="0">u</tspan></text><text class="cls-11" transform="translate(855.72 427.35) rotate(-36.58)"><tspan x="0" y="0">i</tspan></text><text class="cls-11" transform="translate(865.37 419.92) rotate(-40.61)"><tspan x="0" y="0">r</tspan></text><text class="cls-11" transform="translate(875.97 410.46) rotate(-44.96)"><tspan x="0" y="0">r</tspan></text><text class="cls-11" transform="translate(885.94 400.18) rotate(-49.94)"><tspan x="0" y="0">e</tspan></text><path class="cls-12" d="m913.97,197.96c-3.17,1.83-8.5-1.48-11.91-7.4-3.41-5.91-3.61-12.18-.44-14.01,2.17-1.25,5.37-.09,8.26,2.69,1.32,1.26,2.58,2.85,3.64,4.7,1.26,2.18,2.08,4.41,2.46,6.45.64,3.49-.01,6.41-2.01,7.57Z"/><path class="cls-12" d="m914.61,253.24c-1.31-2.28-2.86-5.08-4.65-8.41-.37-.7-.75-1.41-1.15-2.14-1.52-2.85-3.12-5.91-4.8-9.16-2.11-4.09-4.04-8.06-5.78-11.92l-1.3.7-2.68,1.44c2.86,5.65,4.22,10.4,4.07,14.25-.16,3.85-2.22,6.94-6.2,9.24-3.97,2.31-10.3,4-18.96,5.07l-25.48,3.24-25.91-48.15,26.07-29.79c5.34-6.29,9.54-9.07,12.6-8.32,3.06.75,6.54,4.44,10.45,11.07l2.44-1.31,1.54-.83c-1.76-2.64-3.89-6.21-6.39-10.68-1.85-3.32-3.78-6.84-5.79-10.55-.7-1.28-1.41-2.6-2.13-3.94-2.07-3.85-4.11-7.71-6.12-11.6-2-3.89-3.59-7.22-4.75-10.02l-3.98,2.14c1.01,2.2,1.37,5,1.06,8.41-.3,3.42-2.43,7.48-6.41,12.19l-91.01,106.51c.16-2.13.28-4.62.37-7.45.18-5.78.27-13.63.27-23.57,0-12.08.52-21.51,1.57-28.29,1.05-6.78,2.41-11.85,4.11-15.21,1.7-3.36,3.54-5.77,5.53-7.25-1.99-1.48-3.83-3.86-5.53-7.15-1.7-3.29-3.06-8.36-4.11-15.21-1.04-6.85-1.57-16.31-1.57-28.39,0-12.76-.17-22.12-.51-28.1-.34-5.97-.95-9.87-1.85-11.68-.89-1.82-2.19-2.79-3.92-2.92h0c-1.72.12-3.03,1.1-3.91,2.91-.89,1.82-1.5,5.71-1.85,11.68-.34,5.98-.51,15.34-.51,28.09,0,12.09-.52,21.55-1.57,28.4-1.05,6.85-2.42,11.91-4.12,15.2-1.7,3.29-3.54,5.68-5.52,7.15,1.98,1.48,3.82,3.89,5.52,7.25,1.7,3.36,3.07,8.43,4.12,15.21,1.04,6.78,1.57,16.21,1.57,28.29,0,9.94.09,17.79.27,23.57.18,5.77.49,10.1.94,12.99.3,1.93.68,3.41,1.15,4.43,0,0,0,0,0,.01.45.72,1.12,1.88,2.9,2.35.03,0,.06,0,.09.01.71.09,1.09.12,1.83.06-.16.03-.31.05-.47.07.29-.02.56-.04.82-.07.12-.01.24-.03.36-.04.12-.01.25-.03.38-.05l143.07-17.8c7.19-.95,12.76-.7,16.72.76,3.96,1.47,6.98,3.35,9.07,5.64l3.98-2.14c-1.33-1.85-2.66-3.92-3.98-6.21Zm-143.48,12.03l47.46-54.24,24.29,45.12-71.75,9.11Z"/><path class="cls-4" d="m908.81,242.69c-1.52-2.85-3.12-5.91-4.8-9.16-2.11-4.09-4.04-8.06-5.78-11.92l-1.3.7-2.68,1.44c2.86,5.65,4.22,10.4,4.07,14.25-.16,3.85-2.22,6.94-6.2,9.24-3.97,2.31-10.3,4-18.96,5.07l-25.48,3.24-25.91-48.15,26.07-29.79c5.34-6.29,9.54-9.07,12.6-8.32,3.06.75,6.54,4.44,10.45,11.07l2.44-1.31,1.54-.83c-1.76-2.64-3.89-6.21-6.39-10.68-1.85-3.32-3.78-6.84-5.79-10.55,17.7-1.86,36.01,6.41,47.19,22.27,1.22,1.72,2.35,3.54,3.39,5.45,1.02,1.87,1.93,3.78,2.71,5.71,7.42,18.21,4.32,38.37-7.17,52.29Z"/><path class="cls-12" d="m807.35,82.47c-1.95-3.41-5.24-5.83-9.87-7.26-4.63-1.43-10.97-2.1-19.02-2.04-8.6.07-15.28-.17-20.03-.73-4.76-.55-8.13-1.56-10.11-3-1.98-1.45-3.07-3.59-3.28-6.42v-.69s-2.47.02-2.47.02v.69c-.15,2.84-1.23,4.99-3.23,6.47-2,1.48-5.35,2.54-10.06,3.17-4.71.63-11.36.99-19.95,1.06-8.41.07-14.95.85-19.6,2.36-4.65,1.5-7.9,3.97-9.75,7.42-1.84,3.44-2.75,8.05-2.7,13.81l2.61-.02c-.02-2.19.26-4.03.85-5.49.58-1.47,1.85-2.6,3.81-3.39,1.96-.79,4.91-1.37,8.83-1.72,3.93-.36,9.28-.56,16.04-.61,8.23-.07,14.65-1.04,19.25-2.9,4.6-1.87,8.03-4.3,10.3-7.29,2.26-2.99,3.88-6.23,4.86-9.71,1.03,3.47,2.68,6.68,4.95,9.63,2.26,2.95,5.74,5.32,10.42,7.12,4.68,1.79,11.13,2.65,19.36,2.58,8.69-.07,15.07.17,19.14.73,4.07.56,6.74,1.61,7.98,3.16,1.25,1.54,1.93,3.82,2.05,6.84l2.61-.02c-.05-5.76-1.05-10.35-3-13.76Z"/><path class="cls-5" d="m745.37,273.03c.5-.06,1.02-.14,1.68-.23"/><path class="cls-5" d="m748.12,272.66c-.28.04-.54.07-.77.1-.1.01-.2.02-.29.04-1.15.15-1.87.24-2.39.28"/><path class="cls-5" d="m745.02,273.07l-2.03.26c-.04-.08-.09-.16-.13-.24-.87-.16-1.63-.57-2.26-1.24-.27-.29-.53-.69-.76-1.19.45.72,1.12,1.88,2.9,2.35.03,0,.06,0,.09.01.71.09,1.09.12,1.83.06-.16.03-.31.05-.47.07.29-.02.56-.04.82-.07Z"/><path class="cls-5" d="m739.84,270.66s0,0,0-.01"/><text class="cls-10" transform="translate(554.39 301.75)"><tspan x="0" y="0"> </tspan></text><text class="cls-2" transform="translate(609.13 277.68) rotate(84.98)"><tspan x="0" y="0">S</tspan></text><text class="cls-2" transform="translate(612.14 301.83) rotate(74.37)"><tspan x="0" y="0">T</tspan></text><text class="cls-2" transform="translate(619.58 325.16) rotate(63.47)"><tspan x="0" y="0">U</tspan></text><text class="cls-2" transform="translate(631.78 347.5) rotate(52.47)"><tspan x="0" y="0">D</tspan></text><text class="cls-2" transform="translate(647.74 366.55) rotate(43.59)"><tspan x="0" y="0">I</tspan></text><text class="cls-2" transform="translate(659.79 377.53) rotate(34.49)"><tspan x="0" y="0">O</tspan></text><text class="cls-2" transform="translate(681.7 391.21) rotate(25.56)"><tspan x="0" y="0"> </tspan></text><text class="cls-2" transform="translate(694.83 397.17) rotate(17.33)"><tspan x="0" y="0">T</tspan></text><text class="cls-2" transform="translate(714.85 402.75) rotate(9.97)"><tspan x="0" y="0">.</tspan></text><text class="cls-2" transform="translate(730.93 405.2) rotate(.97)"><tspan x="0" y="0">A</tspan></text><text class="cls-3" transform="translate(756.28 404.55) rotate(-7.74)"><tspan x="0" y="0"> </tspan></text><text/><text/><text class="cls-9" transform="translate(1042.28 292.35) rotate(-17.03)"><tspan x="0" y="0">B</tspan></text><text class="cls-9" transform="translate(1061.44 286.66) rotate(-14.91)"><tspan x="0" y="0">a</tspan></text><text class="cls-9" transform="translate(1079.29 282.03) rotate(-13.43)"><tspan x="0" y="0">s</tspan></text><text class="cls-9" transform="translate(1096.73 277.94) rotate(-12.42)"><tspan x="0" y="0">e</tspan></text><text class="cls-9" transform="translate(1114.53 274.07) rotate(-11.79)"><tspan x="0" y="0">d</tspan></text><text class="cls-9" transform="translate(1132.93 270.24) rotate(-9.65)"><tspan x="0" y="0"> </tspan></text><text class="cls-9" transform="translate(1145.08 268.56) rotate(-3.78)"><tspan x="0" y="0">i</tspan></text><text class="cls-9" transform="translate(1157.17 268.03) rotate(3.16)"><tspan x="0" y="0">n</tspan></text><text class="cls-9" transform="translate(1175.43 269.62) rotate(9.53)"><tspan x="0" y="0"> </tspan></text><text class="cls-9" transform="translate(1187.48 271.84) rotate(15.49)"><tspan x="0" y="0">A</tspan></text><text class="cls-9" transform="translate(1206.97 277.72) rotate(21.46)"><tspan x="0" y="0">n</tspan></text><text class="cls-9" transform="translate(1223.98 284.75) rotate(26.14)"><tspan x="0" y="0">g</tspan></text><text class="cls-9" transform="translate(1240.62 293.28) rotate(29.43)"><tspan x="0" y="0">l</tspan></text><text class="cls-9" transform="translate(1251.31 299.44) rotate(32.15)"><tspan x="0" y="0">e</tspan></text><text class="cls-9" transform="translate(1266.54 309.27) rotate(34.6)"><tspan x="0" y="0">t</tspan></text><text class="cls-9" transform="translate(1278.07 317.39) rotate(36.26)"><tspan x="0" y="0">,</tspan></text><text class="cls-9" transform="translate(1287.3 324.26) rotate(37.62)"><tspan x="0" y="0"> </tspan></text><text class="cls-9" transform="translate(1297.17 331.96) rotate(39.11)"><tspan x="0" y="0">a</tspan></text><text class="cls-9" transform="translate(1311.41 343.68) rotate(40.38)"><tspan x="0" y="0">t</tspan></text><text class="cls-9" transform="translate(1322.16 352.91) rotate(41.22)"><tspan x="0" y="0"> </tspan></text><text class="cls-9" transform="translate(1331.57 361.21) rotate(41.84)"><tspan x="0" y="0">t</tspan></text><text class="cls-9" transform="translate(1342.11 370.69) rotate(42.32)"><tspan x="0" y="0">h</tspan></text><text class="cls-9" transform="translate(1355.93 383.2) rotate(40.42)"><tspan x="0" y="0">e</tspan></text><text class="cls-9" transform="translate(1369.85 394.8) rotate(38.25)"><tspan x="0" y="0"> </tspan></text><text class="cls-9" transform="translate(1379.68 402.45) rotate(35.84)"><tspan x="0" y="0">B</tspan></text><text class="cls-9" transform="translate(1395.97 413.96) rotate(32.84)"><tspan x="0" y="0">a</tspan></text><text class="cls-9" transform="translate(1411.75 423.89) rotate(29.77)"><tspan x="0" y="0">s</tspan></text><text class="cls-9" transform="translate(1427.9 432.88) rotate(26.37)"><tspan x="0" y="0">q</tspan></text><text class="cls-9" transform="translate(1445.56 441.34) rotate(22.63)"><tspan x="0" y="0">u</tspan></text><text class="cls-9" transform="translate(1463.46 448.49) rotate(18.68)"><tspan x="0" y="0">e</tspan></text><text class="cls-9" transform="translate(1481.36 454.19) rotate(15.15)"><tspan x="0" y="0"> </tspan></text><text class="cls-9" transform="translate(1494.15 457.51) rotate(11.11)"><tspan x="0" y="0">C</tspan></text><text class="cls-9" transform="translate(1515.28 461.24) rotate(5.99)"><tspan x="0" y="0">o</tspan></text><text class="cls-9" transform="translate(1535.04 462.94) rotate(.88)"><tspan x="0" y="0">u</tspan></text><text class="cls-9" transform="translate(1554.5 462.85) rotate(-4.34)"><tspan x="0" y="0">n</tspan></text><text class="cls-9" transform="translate(1574.16 460.84) rotate(-11.61)"><tspan x="0" y="0">t</tspan></text><text class="cls-9" transform="translate(1588.7 457.4) rotate(-16.59)"><tspan x="0" y="0">r</tspan></text><text class="cls-9" transform="translate(1602.51 453.12) rotate(-18.51)"><tspan x="0" y="0">y</tspan></text><text class="cls-9" transform="translate(1618.71 447.67) rotate(-18.39)"><tspan x="0" y="0"> </tspan></text><text class="cls-9" transform="translate(1630.64 443.76) rotate(-17.32)"><tspan x="0" y="0"> </tspan></text><text class="cls-9" transform="translate(1642.58 440.14) rotate(-15.44)"><tspan x="0" y="0">(</tspan></text><text class="cls-9" transform="translate(1656.41 436.45) rotate(-12.4)"><tspan x="0" y="0">F</tspan></text><text class="cls-9" transform="translate(1674.49 432.71) rotate(-8.15)"><tspan x="0" y="0">R</tspan></text><text class="cls-9" transform="translate(1694.11 430.29) rotate(-4.21)"><tspan x="0" y="0"> </tspan></text><text class="cls-9" transform="translate(1706.49 429.58) rotate(-.99)"><tspan x="0" y="0">-</tspan></text><text class="cls-9" transform="translate(1719.48 429.57) rotate(2.24)"><tspan x="0" y="0"> </tspan></text><text class="cls-9" transform="translate(1731.85 430.2) rotate(6.12)"><tspan x="0" y="0">6</tspan></text><text class="cls-9" transform="translate(1750.33 432.48) rotate(10.55)"><tspan x="0" y="0">4</tspan></text><text class="cls-9" transform="translate(1768.71 436.16) rotate(10.77)"><tspan x="0" y="0">6</tspan></text><text class="cls-9" transform="translate(1787.2 439.56) rotate(9.3)"><tspan x="0" y="0">0</tspan></text><text class="cls-9" transform="translate(1805.84 442.54) rotate(8.65)"><tspan x="0" y="0">0</tspan></text><text class="cls-9" transform="translate(1824.5 445.37) rotate(8.76)"><tspan x="0" y="0">)</tspan></text><text class="cls-9" transform="translate(1838.9 447.63) rotate(9.33)"><tspan x="0" y="0"> </tspan></text><path class="cls-8" d="m870.8,424.2c66.83-38.72,145.3-162.96,279.34-136.98,29.95,5.81,68.22,23.72,102.54,44.57,44.75,27.2,107.41,76.1,123.22,88.82,1.11,1.22-129.5,140.41-293.7-59.43-45.6-55.49-191.15,55.29-209.79,63.94-.61.28-1.61-.93-1.61-.93Z"/></svg>