<?xml version="1.0" encoding="utf-8"?>
<!-- Generator: Adobe Illustrator 27.5.0, SVG Export Plug-In . SVG Version: 6.00 Build 0)  -->
<svg version="1.1" id="Calque_1" xmlns="http://www.w3.org/2000/svg" xmlns:xlink="http://www.w3.org/1999/xlink" x="0px" y="0px"
	 viewBox="0 0 283.4 283.5" style="enable-background:new 0 0 283.4 283.5;" xml:space="preserve">
<style type="text/css">
	.st0{opacity:0.74;fill:#0C4A6E;enable-background:new    ;}
	.st1{opacity:0.18;fill:#0C4A6E;enable-background:new    ;}
	.st2{opacity:0.2;fill:#0684C7;enable-background:new    ;}
	.st3{opacity:0.33;fill:#485569;enable-background:new    ;}
	.st4{opacity:0.38;fill:#0684C7;enable-background:new    ;}
	.st5{opacity:8.000000e-02;fill:#1E293B;enable-background:new    ;}
	.st6{opacity:0.19;fill:#1E293B;enable-background:new    ;}
	.st7{fill:#A88E5C;}
	.st8{opacity:0.4;fill:#A88E5C;enable-background:new    ;}
	.st9{opacity:0.5;fill:#ECE6CA;enable-background:new    ;}
	.st10{opacity:0.15;fill:#29A3DD;enable-background:new    ;}
	.st11{opacity:0.47;fill:#29A3DD;enable-background:new    ;}
	.st12{opacity:0.71;fill:#0684C7;enable-background:new    ;}
	.st13{opacity:0.12;fill:#65748B;enable-background:new    ;}
	.st14{opacity:0.4;fill:#A78D5B;enable-background:new    ;}
	.st15{fill:#035985;}
	.st16{opacity:0.47;fill:#66758A;enable-background:new    ;}
	.st17{fill:#CAD4E0;}
	.st18{fill:#EBE5CA;}
	.st19{opacity:0.38;fill:#0283C6;enable-background:new    ;}
	.st20{opacity:0.59;fill:#E2E8F0;}
</style>
<rect y="113.4" class="st0" width="56.7" height="56.7"/>
<polygon class="st1" points="510.2,792.1 453.5,792.1 453.5,848.8 453.5,905.5 510.2,905.5 510.2,848.8 566.9,848.8 566.9,792.1 "/>
<rect x="396.9" y="565.3" class="st2" width="56.7" height="56.7"/>
<rect x="340.2" y="565.3" class="st3" width="56.7" height="56.7"/>
<rect x="283.5" y="792.1" class="st3" width="56.7" height="56.7"/>
<polygon class="st3" points="510.2,508.7 510.2,452 453.5,452 453.5,508.7 453.5,565.3 510.2,565.3 566.9,565.3 566.9,508.7 "/>
<rect y="226.8" class="st4" width="56.7" height="56.7"/>
<rect x="226.8" y="678.7" class="st5" width="56.7" height="56.7"/>
<rect x="396.9" y="508.7" class="st6" width="56.7" height="56.7"/>
<rect x="340.2" y="508.7" class="st5" width="56.7" height="56.7"/>
<rect x="340.2" y="452" class="st5" width="56.7" height="56.7"/>
<rect x="170.1" y="792.1" class="st5" width="56.7" height="56.7"/>
<rect x="283.5" y="792.1" class="st5" width="56.7" height="56.7"/>
<polygon class="st5" points="283.5,848.8 226.8,848.8 226.8,905.5 226.8,962.2 283.5,962.2 283.5,905.5 340.2,905.5 340.2,848.8 "/>
<rect x="170.1" y="508.7" class="st7" width="56.7" height="56.7"/>
<rect x="623.8" y="962.2" class="st8" width="56.7" height="56.7"/>
<rect x="283.5" y="905.5" class="st9" width="56.7" height="56.7"/>
<rect x="226.8" y="792.1" class="st9" width="56.7" height="56.7"/>
<rect x="283.5" y="735.4" class="st9" width="56.7" height="56.7"/>
<rect x="226.8" y="735.4" class="st9" width="56.7" height="56.7"/>
<rect x="170.1" y="508.7" class="st9" width="56.7" height="56.7"/>
<rect x="453.6" y="962.2" class="st9" width="56.7" height="56.7"/>
<polygon class="st9" points="567.1,848.8 510.4,848.8 510.4,905.5 510.4,962.2 567.1,962.2 567.1,905.5 623.8,905.5 623.8,848.8 "/>
<rect x="623.8" y="848.8" class="st10" width="56.7" height="56.7"/>
<polygon class="st11" points="170.1,508.7 170.1,565.3 170.1,622 226.8,622 226.8,565.3 226.8,508.7 "/>
<polygon class="st11" points="226.8,565.3 226.8,622 226.8,678.7 283.5,678.7 283.5,622 283.5,565.3 "/>
<rect x="113.4" y="565.3" class="st4" width="56.7" height="56.7"/>
<rect x="283.5" y="792.1" class="st4" width="56.7" height="56.7"/>
<polygon class="st4" points="283.5,508.7 283.5,565.3 226.8,565.3 226.8,622 283.5,622 283.5,678.7 340.2,678.7 340.2,622 
	340.2,565.3 340.2,508.7 "/>
<polygon class="st4" points="396.9,848.8 396.9,792.1 340.2,792.1 340.2,848.8 340.2,905.5 396.9,905.5 396.9,962.2 453.5,962.2 
	453.5,905.5 453.5,848.8 "/>
<polygon class="st12" points="226.8,451.9 226.8,508.6 226.8,565.3 283.5,565.3 283.5,508.6 283.5,451.9 "/>
<polygon class="st13" points="340.3,395.3 340.3,452 340.3,508.7 340.2,508.7 340.2,565.3 396.9,565.3 396.9,508.7 397,508.7 
	397,452 397,395.3 "/>
<polygon class="st13" points="453.5,678.7 453.5,622 453.5,565.3 453.7,565.3 453.7,508.7 397,508.7 397,565.3 396.9,565.3 
	396.9,622 396.9,678.7 "/>
<rect x="170.1" y="848.8" class="st8" width="56.7" height="56.7"/>
<rect x="453.5" y="622" class="st8" width="56.7" height="56.7"/>
<polygon class="st8" points="170.1,678.7 170.1,735.4 113.4,735.4 113.4,792.1 170.1,792.1 226.8,792.1 226.8,735.4 226.8,678.7 "/>
<rect x="567.1" y="905.5" class="st8" width="56.7" height="56.7"/>
<rect x="-0.3" y="113.4" class="st14" width="56.7" height="56.7"/>
<rect y="226.8" class="st14" width="113.4" height="56.7"/>
<rect x="110.2" y="113.4" class="st15" width="59.8" height="56.7"/>
<rect x="56.7" y="170.1" class="st16" width="56.7" height="56.7"/>
<rect x="56.7" y="113.4" class="st17" width="56.7" height="56.7"/>
<rect x="170.1" y="113.4" class="st17" width="56.7" height="56.7"/>
<rect x="170.1" y="170.1" class="st17" width="56.7" height="56.7"/>
<rect x="226.8" y="226.8" class="st17" width="56.7" height="56.7"/>
<rect x="170.1" class="st17" width="56.7" height="56.7"/>
<rect x="113.4" y="170.1" class="st18" width="56.7" height="56.7"/>
<rect x="113.4" y="56.7" class="st19" width="56.7" height="56.7"/>
<rect x="0" y="113.4" class="st20" width="56.7" height="56.7"/>
<rect x="56.7" y="113.4" class="st20" width="56.7" height="56.7"/>
<rect x="113.7" y="113.4" class="st20" width="56.7" height="56.7"/>
<rect x="170.1" y="113.4" class="st20" width="56.7" height="56.7"/>
<rect x="170.1" y="170.1" class="st20" width="56.7" height="56.7"/>
<rect x="113.4" y="170.1" class="st20" width="56.7" height="56.7"/>
<rect x="56.7" y="170.1" class="st20" width="56.7" height="56.7"/>
<rect x="-0.3" y="226.8" class="st20" width="56.7" height="56.7"/>
<rect x="56.7" y="226.8" class="st20" width="56.7" height="56.7"/>
<rect x="226.9" y="226.8" class="st20" width="56.7" height="56.7"/>
<rect x="170.1" y="0" class="st20" width="56.7" height="56.7"/>
<rect x="113.7" y="56.7" class="st20" width="56.7" height="56.7"/>
<rect x="113.3" y="56.7" class="st20" width="56.7" height="56.7"/>
</svg>
