<?xml version="1.0" encoding="utf-8"?>
<!-- Generator: Adobe Illustrator 27.3.0, SVG Export Plug-In . SVG Version: 6.00 Build 0)  -->
<svg version="1.1" id="Calque_1" xmlns="http://www.w3.org/2000/svg" xmlns:xlink="http://www.w3.org/1999/xlink" x="0px" y="0px"
	 viewBox="0 0 700 700" style="enable-background:new 0 0 700 700;" xml:space="preserve">
<style type="text/css">
	.st0{fill:#EFD81D;}
</style>
<path class="st0" d="M0,0v700h700V0H0z M375,543.8c0,68.1-40.2,101.4-98.5,101.4c-52.6,0-83.2-27.2-98.7-60.1l0,0l53.6-32.4
	c10.3,18.3,18.2,33.8,40.7,33.8c18.8,0,34.2-8.5,34.2-41.3V325H375V543.8z M530.2,643.5c-61.1,0-100.5-27.6-119.8-65.6l0,0l53.6-31
	c14.1,23,32.4,38.4,64.8,38.4c27.2,0,43.1-12.1,43.1-30.9c0-22.5-16.3-30.5-46.4-43.8l-16.4-7.1c-47.5-20.2-78.9-45.6-78.9-99.1
	c0-49.3,37.6-85.4,96.3-85.4c41.8,0,71.9,13,93.5,51.1l-51.3,33c-11.3-20.2-23.4-28.1-42.3-28.1c-19.3,0-31.5,12.2-31.5,28.1
	c0,19.7,12.2,27.7,40.4,39.9l16.4,7c55.9,24,87.4,48.4,87.4,103.4C639.2,612.7,592.7,643.5,530.2,643.5z"/>
</svg>
