<?xml version="1.0" encoding="UTF-8"?><svg id="Calque_1" xmlns="http://www.w3.org/2000/svg" viewBox="0 0 500 488.43"><defs><style>.cls-1{fill:#53a0d8;}.cls-2{fill:#132035;}</style></defs><rect class="cls-2" y="0" width="500" height="488.43" rx="89.8" ry="89.8"/><path class="cls-1" d="m196.11,125.13h-81.49v217.14h45.74v-67.82h35.75c20.62,0,39.28-8.36,52.79-21.87,13.51-13.51,21.87-32.18,21.87-52.79,0-41.23-33.43-74.66-74.66-74.66Zm19.13,99.57c-6.38,6.37-15.18,10.32-24.91,10.32h-29.97v-70.45h29.97c19.45,0,35.23,15.77,35.23,35.23,0,9.73-3.94,18.53-10.32,24.91Z"/><path class="cls-1" d="m413.51,293.59c0,14.41-6.72,28.17-17.33,37.78-11.95,10.83-28.56,15.45-44.34,16.66-1.89.14-3.79.24-5.68.27-17.54.36-35.98-3.37-51.92-10.74-.17-.08-.34-.16-.51-.23.03-12.78.05-25.57.08-38.35,0,.7,12.68,3.77,14.25,4.28,14.47,4.75,31.74,8.3,46.98,6.35,3.22-.41,6.53-1.21,9.02-3.29,9.4-7.81-.13-17.52-7.79-21.25-8.31-4.04-17.26-6.59-25.75-10.24-8.04-3.46-15.72-7.95-22.13-13.92-21.2-19.75-20.38-52.92,1.23-72.11,12.23-10.86,28.75-14.31,44.7-15.01,16.51-.73,33.17,2.22,48.45,8.5.59.24,1.21.52,1.53,1.06.28.46.29,1.03.29,1.57.02,13.05.03,26.11.05,39.16-2.49-2.12-5.89-3.01-8.84-4.3-3.2-1.4-6.47-2.63-9.79-3.7-11.77-3.77-27.06-7.26-39.15-3.11-4.44,1.52-7.75,4.69-7.75,9.6,0,7.61,7.46,11.27,13.55,14.04,7.55,3.44,15.6,5.54,23.13,9.03,19.54,9.07,37.71,24.62,37.71,47.94Z"/></svg>