<?xml version="1.0" encoding="utf-8"?>
<!-- Generator: Adobe Illustrator 27.3.1, SVG Export Plug-In . SVG Version: 6.00 Build 0)  -->
<svg version="1.1" id="Calque_1" xmlns="http://www.w3.org/2000/svg" xmlns:xlink="http://www.w3.org/1999/xlink" x="0px" y="0px"
	 viewBox="0 0 800 800" style="enable-background:new 0 0 800 800;" xml:space="preserve">
<style type="text/css">
	.st0{fill-rule:evenodd;clip-rule:evenodd;fill:#38BDF8;}
</style>
<path class="st0" d="M400,201.2c-88.9,0-144.4,44.2-166.7,132.5C266.7,289.6,305.6,273,350,284c25.4,6.3,43.5,24.6,63.5,44.8
	c32.7,33,70.5,71.1,153.1,71.1c88.9,0,144.4-44.2,166.7-132.5c-33.3,44.2-72.2,60.7-116.7,49.7c-25.4-6.3-43.5-24.6-63.6-44.8
	C520.4,239.3,482.6,201.2,400,201.2L400,201.2z M233.3,400c-88.9,0-144.4,44.2-166.7,132.5c33.3-44.2,72.2-60.7,116.7-49.7
	c25.4,6.3,43.5,24.6,63.6,44.8c32.7,33,70.5,71.1,153.1,71.1c88.9,0,144.4-44.2,166.7-132.5C533.4,510.4,494.5,527,450,516
	c-25.4-6.3-43.5-24.6-63.5-44.8C353.8,438.2,315.9,400,233.3,400z"/>
</svg>
