<?xml version="1.0" encoding="UTF-8"?><svg id="Calque_1" xmlns="http://www.w3.org/2000/svg" viewBox="0 0 64 64"><defs><style>.cls-1{fill:#fff;}.cls-2{fill:#00749a;}</style></defs><rect class="cls-1" width="64" height="32"/><path class="cls-2" d="m4.52,32c0,10.9,6.26,20.29,15.4,24.7L6.96,20.87c-1.51,3.48-2.44,7.19-2.44,11.13Zm46.03-1.39c0-3.36-1.28-5.8-2.32-7.54-1.39-2.32-2.67-4.17-2.67-6.49,0-2.55,1.97-4.87,4.64-4.87h.35c-4.87-4.52-11.36-7.19-18.55-7.19-9.23.08-17.83,4.73-22.96,12.41h1.74c2.9,0,7.3-.35,7.3-.35,1.51-.12,1.62,2.09.23,2.32,0,0-1.51.23-3.13.23l9.97,29.68,6.03-17.97-4.29-11.71-2.9-.23c-1.51-.12-1.28-2.32.12-2.32,0,0,4.52.35,7.19.35,2.9,0,7.3-.35,7.3-.35,1.51-.12,1.62,2.09.23,2.32,0,0-1.51.23-3.13.23l9.97,29.57,2.8-9.16c1.16-3.83,2.09-6.49,2.09-8.93h-.02Zm-18.09,3.83l-8.23,23.89c2.43.7,5.1,1.16,7.77,1.16,3.25,0,6.26-.6,9.16-1.51-.12-.12-.12-.23-.23-.35l-8.46-23.19Zm23.65-15.53l.23,2.8c0,2.8-.46,5.91-2.09,9.86l-8.35,24.23c8.12-4.75,13.68-13.57,13.68-23.77-.12-4.75-1.39-9.16-3.48-13.1v-.02ZM32,0C14.38,0,0,14.38,0,32s14.38,32,32,32,32-14.38,32-32S49.62,0,32,0Zm0,62.61c-16.81,0-30.49-13.68-30.49-30.61C1.53,15.17,15.17,1.53,32,1.51c16.83.03,30.47,13.66,30.49,30.49,0,16.93-13.68,30.61-30.49,30.61Z"/></svg>